<?xml version="1.0" encoding="UTF-8"?>
<svg xmlns="http://www.w3.org/2000/svg" xmlns:xlink="http://www.w3.org/1999/xlink" width="30px" height="30px" viewBox="0 0 30 30" version="1.1">
<g id="surface1">
<path style=" stroke:none;fill-rule:nonzero;fill:rgb(0%,0%,0%);fill-opacity:1;" d="M 3.570312 11.429688 C 1.605469 11.429688 0 13.03125 0 15 C 0 16.96875 1.605469 18.570312 3.570312 18.570312 C 5.542969 18.570312 7.140625 16.96875 7.140625 15 C 7.140625 13.03125 5.542969 11.429688 3.570312 11.429688 Z M 3.570312 11.429688 "/>
<path style=" stroke:none;fill-rule:nonzero;fill:rgb(0%,0%,0%);fill-opacity:1;" d="M 15 11.429688 C 13.03125 11.429688 11.429688 13.03125 11.429688 15 C 11.429688 16.96875 13.03125 18.570312 15 18.570312 C 16.96875 18.570312 18.570312 16.96875 18.570312 15 C 18.570312 13.03125 16.96875 11.429688 15 11.429688 Z M 15 11.429688 "/>
<path style=" stroke:none;fill-rule:nonzero;fill:rgb(0%,0%,0%);fill-opacity:1;" d="M 26.429688 11.429688 C 24.457031 11.429688 22.859375 13.03125 22.859375 15 C 22.859375 16.96875 24.457031 18.570312 26.429688 18.570312 C 28.394531 18.570312 30 16.96875 30 15 C 30 13.03125 28.394531 11.429688 26.429688 11.429688 Z M 26.429688 11.429688 "/>
</g>
</svg>
