<?xml version="1.0" encoding="UTF-8"?>
<svg xmlns="http://www.w3.org/2000/svg" xmlns:xlink="http://www.w3.org/1999/xlink" width="30px" height="30px" viewBox="0 0 30 29" version="1.1">
<g id="surface1">
<path style=" stroke:none;fill-rule:nonzero;fill:rgb(0%,0%,0%);fill-opacity:1;" d="M 29.132812 3.347656 L 5.480469 3.347656 C 5.019531 3.347656 4.617188 3.738281 4.617188 4.183594 L 4.617188 21.191406 C 4.617188 21.863281 3.980469 22.417969 3.289062 22.308594 C 2.710938 22.195312 2.308594 21.695312 2.308594 21.136719 L 2.308594 8.921875 C 2.308594 8.589844 2.078125 8.367188 1.730469 8.367188 L 0.867188 8.367188 C 0.402344 8.367188 0 8.753906 0 9.203125 L 0 23.421875 C 0 24.648438 1.039062 25.652344 2.308594 25.652344 L 27.691406 25.652344 C 28.960938 25.652344 30 24.648438 30 23.421875 L 30 4.183594 C 30 3.738281 29.597656 3.347656 29.132812 3.347656 Z M 16.152344 19.519531 C 16.152344 19.855469 15.921875 20.078125 15.578125 20.078125 L 8.652344 20.078125 C 8.308594 20.078125 8.078125 19.855469 8.078125 19.519531 L 8.078125 18.402344 C 8.078125 18.070312 8.308594 17.847656 8.652344 17.847656 L 15.578125 17.847656 C 15.921875 17.847656 16.152344 18.070312 16.152344 18.402344 Z M 16.152344 15.058594 C 16.152344 15.390625 15.921875 15.617188 15.578125 15.617188 L 8.652344 15.617188 C 8.308594 15.617188 8.078125 15.390625 8.078125 15.058594 L 8.078125 13.941406 C 8.078125 13.609375 8.308594 13.382812 8.652344 13.382812 L 15.578125 13.382812 C 15.921875 13.382812 16.152344 13.609375 16.152344 13.941406 Z M 26.539062 19.519531 C 26.539062 19.855469 26.308594 20.078125 25.960938 20.078125 L 19.039062 20.078125 C 18.691406 20.078125 18.460938 19.855469 18.460938 19.519531 L 18.460938 18.402344 C 18.460938 18.070312 18.691406 17.847656 19.039062 17.847656 L 25.960938 17.847656 C 26.308594 17.847656 26.539062 18.070312 26.539062 18.402344 Z M 26.539062 15.058594 C 26.539062 15.390625 26.308594 15.617188 25.960938 15.617188 L 19.039062 15.617188 C 18.691406 15.617188 18.460938 15.390625 18.460938 15.058594 L 18.460938 13.941406 C 18.460938 13.609375 18.691406 13.382812 19.039062 13.382812 L 25.960938 13.382812 C 26.308594 13.382812 26.539062 13.609375 26.539062 13.941406 Z M 26.539062 10.597656 C 26.539062 10.929688 26.308594 11.152344 25.960938 11.152344 L 8.652344 11.152344 C 8.308594 11.152344 8.078125 10.929688 8.078125 10.597656 L 8.078125 7.25 C 8.078125 6.914062 8.308594 6.691406 8.652344 6.691406 L 25.960938 6.691406 C 26.308594 6.691406 26.539062 6.914062 26.539062 7.25 Z M 26.539062 10.597656 "/>
</g>
</svg>
