<?xml version="1.0" encoding="UTF-8"?>
<svg xmlns="http://www.w3.org/2000/svg" xmlns:xlink="http://www.w3.org/1999/xlink" width="30px" height="30px" viewBox="0 0 30 30" version="1.1">
<g id="surface1">
<path style=" stroke:none;fill-rule:nonzero;fill:rgb(0%,0%,0%);fill-opacity:1;" d="M 17.015625 1.832031 C 12.199219 2.710938 7.859375 5.285156 2.058594 2.6875 C 2.132812 2.953125 2.207031 3.214844 2.28125 3.476562 L 0.902344 3.476562 L 0.789062 3.082031 L 0 3.082031 L 7.097656 28.148438 L 7.886719 28.148438 L 4.71875 16.964844 L 6.101562 16.964844 C 6.1875 17.273438 6.277344 17.578125 6.363281 17.886719 C 12.160156 20.480469 16.5 17.910156 21.316406 17.03125 C 19.882812 11.964844 18.449219 6.898438 17.015625 1.832031 Z M 7.734375 4.601562 C 9.367188 4.566406 10.917969 4.230469 12.449219 3.828125 C 12.859375 5.273438 13.269531 6.722656 13.679688 8.167969 C 12.148438 8.570312 10.597656 8.910156 8.964844 8.945312 C 8.554688 7.496094 8.144531 6.050781 7.734375 4.601562 Z M 4.550781 16.371094 L 1.070312 4.070312 L 2.449219 4.070312 C 3.613281 8.171875 4.773438 12.273438 5.933594 16.371094 Z M 5.664062 12.625 C 5.261719 11.210938 4.859375 9.796875 4.460938 8.382812 C 6.078125 8.972656 7.582031 9.175781 9.019531 9.140625 C 9.417969 10.558594 9.820312 11.972656 10.21875 13.386719 C 8.78125 13.417969 7.277344 13.21875 5.664062 12.625 Z M 16.304688 17.445312 C 14.773438 17.847656 13.222656 18.183594 11.589844 18.222656 C 11.179688 16.773438 10.769531 15.324219 10.359375 13.878906 C 11.992188 13.84375 13.542969 13.503906 15.074219 13.101562 C 15.484375 14.550781 15.894531 15.996094 16.304688 17.445312 Z M 18.976562 11.554688 C 17.613281 11.851562 16.28125 12.253906 14.933594 12.609375 C 14.535156 11.195312 14.132812 9.78125 13.734375 8.367188 C 15.082031 8.011719 16.414062 7.605469 17.777344 7.308594 C 18.175781 8.726562 18.578125 10.140625 18.976562 11.554688 Z M 18.335938 4.300781 C 18.414062 4.5625 18.484375 4.824219 18.558594 5.089844 C 19.183594 4.996094 19.8125 4.933594 20.453125 4.921875 C 20.863281 6.367188 21.273438 7.816406 21.683594 9.261719 C 21.042969 9.277344 20.410156 9.339844 19.792969 9.429688 C 20.257812 11.074219 20.722656 12.722656 21.191406 14.367188 C 21.808594 14.273438 22.441406 14.210938 23.082031 14.195312 C 23.492188 15.644531 23.902344 17.09375 24.3125 18.539062 C 22.679688 18.574219 21.128906 18.914062 19.597656 19.3125 C 19.5 18.972656 19.40625 18.632812 19.308594 18.292969 C 17.714844 18.710938 16.144531 19.203125 14.519531 19.5 C 14.691406 20.101562 14.859375 20.707031 15.03125 21.308594 C 19.847656 20.429688 24.1875 17.859375 29.984375 20.453125 C 28.550781 15.386719 27.117188 10.320312 25.679688 5.253906 C 22.980469 4.046875 20.601562 3.960938 18.335938 4.300781 Z M 27.5 14.464844 C 25.882812 13.871094 24.382812 13.671875 22.941406 13.703125 C 22.542969 12.289062 22.140625 10.875 21.742188 9.460938 C 23.179688 9.429688 24.683594 9.628906 26.296875 10.222656 C 26.699219 11.636719 27.097656 13.050781 27.5 14.464844 Z M 27.5 14.464844 "/>
</g>
</svg>
