<?xml version="1.0" encoding="UTF-8"?>
<svg xmlns="http://www.w3.org/2000/svg" xmlns:xlink="http://www.w3.org/1999/xlink" width="30px" height="30px" viewBox="0 0 30 30" version="1.1">
<g id="surface1">
<path style=" stroke:none;fill-rule:nonzero;fill:rgb(0%,0%,0%);fill-opacity:1;" d="M 13.203125 17.109375 C 13.203125 18.097656 14.007812 18.90625 15 18.90625 C 15.988281 18.90625 16.796875 18.097656 16.796875 17.109375 C 16.796875 16.117188 15.988281 15.3125 15 15.3125 C 14.007812 15.3125 13.203125 16.117188 13.203125 17.109375 Z M 15 18.027344 C 14.492188 18.027344 14.082031 17.617188 14.082031 17.109375 C 14.082031 16.601562 14.492188 16.1875 15 16.1875 C 15.503906 16.1875 15.917969 16.601562 15.917969 17.109375 C 15.917969 17.617188 15.503906 18.027344 15 18.027344 Z M 15 18.027344 "/>
<path style=" stroke:none;fill-rule:nonzero;fill:rgb(0%,0%,0%);fill-opacity:1;" d="M 15 14.050781 L 16.339844 10.277344 L 13.65625 10.277344 Z M 15 14.050781 "/>
<path style=" stroke:none;fill-rule:nonzero;fill:rgb(0%,0%,0%);fill-opacity:1;" d="M 16.898438 26.25 C 16.476562 25.574219 15.910156 23.539062 17.035156 22.648438 C 17.660156 22.164062 18.378906 22.246094 19.117188 22.519531 C 19.136719 21.589844 19.609375 18.601562 20.425781 17.941406 L 20.425781 17.914062 L 20.433594 17.929688 C 20.640625 17.765625 20.761719 17.726562 21.003906 17.628906 C 21.320312 17.605469 21.414062 17.578125 21.71875 17.660156 C 21.4375 15.820312 21.460938 14.886719 22.074219 14.332031 L 20.265625 11.363281 C 19.84375 10.675781 19.191406 10.277344 18.203125 10.277344 L 16.632812 14.691406 C 17.40625 15.214844 17.917969 16.101562 17.917969 17.109375 C 17.917969 18.722656 16.609375 20.027344 14.996094 20.027344 C 13.390625 20.027344 12.082031 18.722656 12.082031 17.109375 C 12.082031 16.101562 12.589844 15.214844 13.363281 14.691406 L 11.796875 10.277344 C 10.800781 10.277344 10.152344 10.679688 9.734375 11.363281 L 7.925781 14.328125 C 8.539062 14.867188 8.566406 15.804688 8.28125 17.660156 C 8.539062 17.59375 8.636719 17.605469 8.902344 17.605469 C 9.1875 17.707031 9.34375 17.746094 9.570312 17.921875 L 9.574219 17.914062 L 9.574219 17.925781 C 10.394531 18.578125 10.863281 21.523438 10.882812 22.519531 C 11.613281 22.25 12.339844 22.160156 12.957031 22.644531 C 14.089844 23.539062 13.523438 25.574219 13.113281 26.238281 C 12.941406 26.503906 12.703125 26.710938 12.429688 26.859375 L 17.566406 26.859375 C 17.296875 26.714844 17.0625 26.507812 16.898438 26.25 Z M 16.898438 26.25 "/>
<path style=" stroke:none;fill-rule:nonzero;fill:rgb(0%,0%,0%);fill-opacity:1;" d="M 15 9.417969 C 17.472656 9.417969 19.476562 7.414062 19.476562 4.941406 C 19.476562 2.472656 17.472656 0.46875 15 0.46875 C 12.527344 0.46875 10.527344 2.472656 10.527344 4.941406 C 10.527344 7.414062 12.527344 9.417969 15 9.417969 Z M 15 9.417969 "/>
<path style=" stroke:none;fill-rule:nonzero;fill:rgb(0%,0%,0%);fill-opacity:1;" d="M 7.839844 23.398438 C 6.902344 22.078125 6.921875 22.101562 6.058594 20.710938 C 5.242188 19.199219 4.355469 17.371094 3.949219 15.667969 C 3.578125 14.113281 3.5 12.46875 3.566406 10.871094 C 3.648438 9.25 3.828125 7.960938 4 7.171875 C 4 7.171875 3.417969 8.613281 3.148438 10.828125 C 2.957031 12.441406 2.976562 14.070312 3.230469 15.660156 C 3.515625 17.460938 4.261719 19.566406 5.003906 21.25 C 5.777344 22.785156 5.933594 22.957031 6.6875 24.300781 C 7.183594 25.070312 8.148438 26.324219 8.65625 26.917969 C 7.199219 26.445312 6.964844 28.71875 7.730469 29.320312 C 8.4375 29.871094 9.734375 29.21875 9.984375 28.8125 C 10.246094 28.410156 9.933594 27.746094 9.339844 27.273438 C 9.558594 27.28125 9.78125 27.207031 9.953125 27.042969 C 10.261719 26.753906 10.339844 26.1875 9.996094 25.816406 C 7.636719 23.292969 8.464844 24.222656 7.839844 23.398438 Z M 7.839844 23.398438 "/>
<path style=" stroke:none;fill-rule:nonzero;fill:rgb(0%,0%,0%);fill-opacity:1;" d="M 4.457031 6.484375 C 4.90625 6.652344 5.457031 6.28125 5.742188 5.675781 C 5.992188 5.066406 6.609375 3.308594 6.246094 3.035156 C 5.832031 2.738281 4.464844 4.234375 4.175781 4.941406 C 3.851562 5.621094 4.007812 6.320312 4.457031 6.484375 Z M 4.457031 6.484375 "/>
<path style=" stroke:none;fill-rule:nonzero;fill:rgb(0%,0%,0%);fill-opacity:1;" d="M 4.707031 7.839844 C 4.613281 7.890625 4.527344 7.945312 4.464844 8 C 4 8.363281 3.816406 9.148438 4.066406 9.675781 C 4.113281 9.769531 4.179688 9.835938 4.242188 9.902344 C 4.523438 10.195312 4.941406 10.199219 5.273438 9.894531 C 5.667969 9.496094 6.625 8.269531 6.464844 7.773438 C 6.316406 7.316406 5.285156 7.523438 4.707031 7.839844 Z M 4.707031 7.839844 "/>
<path style=" stroke:none;fill-rule:nonzero;fill:rgb(0%,0%,0%);fill-opacity:1;" d="M 12.242188 23.566406 C 11.808594 23.226562 10.621094 23.84375 10.289062 24.1875 C 9.960938 24.535156 10.09375 25.191406 10.636719 25.613281 C 11.175781 26.035156 11.859375 26.019531 12.121094 25.617188 C 12.375 25.210938 12.671875 23.90625 12.242188 23.566406 Z M 12.242188 23.566406 "/>
<path style=" stroke:none;fill-rule:nonzero;fill:rgb(0%,0%,0%);fill-opacity:1;" d="M 5.410156 14.292969 C 5.65625 13.789062 6.636719 11.820312 6.378906 11.429688 C 6.070312 10.960938 4.417969 12.242188 4.101562 12.757812 C 3.308594 13.828125 4.652344 15.484375 5.410156 14.292969 Z M 5.410156 14.292969 "/>
<path style=" stroke:none;fill-rule:nonzero;fill:rgb(0%,0%,0%);fill-opacity:1;" d="M 5.003906 17.328125 C 4.765625 17.945312 5.070312 18.789062 5.640625 19.117188 C 6.210938 19.449219 6.777344 19.15625 6.945312 18.566406 C 7.042969 17.921875 7.53125 15.511719 7.132812 15.183594 C 6.652344 14.769531 5.1875 16.652344 5.003906 17.328125 Z M 5.003906 17.328125 "/>
<path style=" stroke:none;fill-rule:nonzero;fill:rgb(0%,0%,0%);fill-opacity:1;" d="M 8.507812 23.582031 C 9.257812 23.742188 9.753906 23.214844 9.71875 22.507812 C 9.566406 21.765625 9.285156 19.007812 8.765625 18.796875 C 8.101562 18.5 7.113281 21.027344 7.15625 21.839844 C 7.113281 22.59375 7.757812 23.429688 8.507812 23.582031 Z M 8.507812 23.582031 "/>
<path style=" stroke:none;fill-rule:nonzero;fill:rgb(0%,0%,0%);fill-opacity:1;" d="M 2.953125 9.441406 C 3.371094 9.003906 3.550781 8.246094 3.371094 7.664062 C 3.171875 7.105469 2.414062 5.785156 1.910156 6.1875 C 1.371094 6.617188 1.472656 8.648438 1.746094 9.21875 C 1.988281 9.808594 2.535156 9.871094 2.953125 9.441406 Z M 2.953125 9.441406 "/>
<path style=" stroke:none;fill-rule:nonzero;fill:rgb(0%,0%,0%);fill-opacity:1;" d="M 2.605469 14.582031 C 2.886719 14.046875 2.84375 13.265625 2.507812 12.757812 C 2.136719 12.308594 0.742188 10.394531 0.367188 10.890625 C -0.0820312 11.464844 0.933594 14.261719 1.386719 14.707031 C 1.78125 15.207031 2.324219 15.113281 2.605469 14.582031 Z M 2.605469 14.582031 "/>
<path style=" stroke:none;fill-rule:nonzero;fill:rgb(0%,0%,0%);fill-opacity:1;" d="M 2.425781 20.480469 C 3.039062 20.914062 3.605469 20.621094 3.730469 19.925781 C 3.855469 19.230469 3.550781 18.371094 3.015625 17.910156 C 2.453125 17.53125 0.300781 15.796875 0.0390625 16.472656 C -0.300781 17.269531 1.753906 20.136719 2.425781 20.480469 Z M 2.425781 20.480469 "/>
<path style=" stroke:none;fill-rule:nonzero;fill:rgb(0%,0%,0%);fill-opacity:1;" d="M 5.367188 23.042969 C 4.617188 22.828125 1.675781 21.59375 1.617188 22.425781 C 1.5 23.441406 4.800781 25.957031 5.683594 26.089844 C 6.53125 26.351562 7.03125 25.824219 6.898438 25.015625 C 6.761719 24.203125 6.117188 23.367188 5.367188 23.042969 Z M 5.367188 23.042969 "/>
<path style=" stroke:none;fill-rule:nonzero;fill:rgb(0%,0%,0%);fill-opacity:1;" d="M 21.34375 26.917969 C 22.867188 25.144531 23.902344 23.425781 24.996094 21.25 C 25.722656 19.601562 26.480469 17.503906 26.769531 15.660156 C 27.003906 14.179688 27.019531 12.800781 26.925781 11.597656 C 26.789062 9.832031 26.359375 8.066406 26 7.171875 C 26.214844 8.167969 26.4375 9.925781 26.453125 11.613281 C 26.46875 12.960938 26.363281 14.359375 26.050781 15.671875 C 25.613281 17.515625 24.738281 19.230469 23.941406 20.710938 C 21.953125 23.914062 21.707031 23.996094 20.003906 25.816406 C 19.660156 26.1875 19.738281 26.753906 20.046875 27.042969 C 20.21875 27.207031 20.441406 27.28125 20.660156 27.273438 C 20.066406 27.746094 19.753906 28.410156 20.015625 28.8125 C 20.265625 29.21875 21.5625 29.871094 22.269531 29.320312 C 22.972656 28.769531 22.632812 27.367188 22.300781 27.023438 C 22.09375 26.804688 21.730469 26.792969 21.34375 26.917969 Z M 21.34375 26.917969 "/>
<path style=" stroke:none;fill-rule:nonzero;fill:rgb(0%,0%,0%);fill-opacity:1;" d="M 25.542969 6.484375 C 25.992188 6.320312 26.148438 5.621094 25.828125 4.941406 C 25.535156 4.234375 24.167969 2.738281 23.753906 3.035156 C 23.390625 3.308594 24.007812 5.066406 24.257812 5.675781 C 24.542969 6.28125 25.09375 6.652344 25.542969 6.484375 Z M 25.542969 6.484375 "/>
<path style=" stroke:none;fill-rule:nonzero;fill:rgb(0%,0%,0%);fill-opacity:1;" d="M 25.933594 9.675781 C 26.183594 9.148438 26 8.363281 25.535156 8 C 25.101562 7.625 23.710938 7.230469 23.535156 7.773438 C 23.375 8.269531 24.332031 9.496094 24.726562 9.894531 C 25.167969 10.296875 25.714844 10.128906 25.933594 9.675781 Z M 25.933594 9.675781 "/>
<path style=" stroke:none;fill-rule:nonzero;fill:rgb(0%,0%,0%);fill-opacity:1;" d="M 19.710938 24.1875 C 19.378906 23.84375 18.191406 23.226562 17.757812 23.566406 C 17.328125 23.90625 17.625 25.210938 17.878906 25.617188 C 18.140625 26.019531 18.824219 26.035156 19.363281 25.613281 C 19.90625 25.191406 20.039062 24.535156 19.710938 24.1875 Z M 19.710938 24.1875 "/>
<path style=" stroke:none;fill-rule:nonzero;fill:rgb(0%,0%,0%);fill-opacity:1;" d="M 23.621094 11.429688 C 23.363281 11.820312 24.34375 13.789062 24.589844 14.292969 C 24.878906 14.75 25.421875 14.839844 25.8125 14.417969 C 26.175781 14.027344 26.214844 13.183594 25.898438 12.757812 C 25.582031 12.242188 23.929688 10.960938 23.621094 11.429688 Z M 23.621094 11.429688 "/>
<path style=" stroke:none;fill-rule:nonzero;fill:rgb(0%,0%,0%);fill-opacity:1;" d="M 24.359375 19.117188 C 24.929688 18.789062 25.234375 17.945312 24.996094 17.328125 C 24.8125 16.652344 23.347656 14.769531 22.867188 15.183594 C 22.46875 15.511719 22.957031 17.921875 23.054688 18.566406 C 23.222656 19.15625 23.789062 19.449219 24.359375 19.117188 Z M 24.359375 19.117188 "/>
<path style=" stroke:none;fill-rule:nonzero;fill:rgb(0%,0%,0%);fill-opacity:1;" d="M 21.234375 18.796875 C 20.714844 19.007812 20.433594 21.765625 20.28125 22.507812 C 20.246094 23.214844 20.742188 23.742188 21.492188 23.582031 C 22.242188 23.429688 22.886719 22.59375 22.84375 21.839844 C 22.886719 21.027344 21.898438 18.5 21.234375 18.796875 Z M 21.234375 18.796875 "/>
<path style=" stroke:none;fill-rule:nonzero;fill:rgb(0%,0%,0%);fill-opacity:1;" d="M 28.253906 9.277344 C 28.527344 8.710938 28.628906 6.675781 28.085938 6.246094 C 27.585938 5.84375 26.828125 7.167969 26.628906 7.726562 C 26.449219 8.308594 26.628906 9.066406 27.046875 9.5 C 27.464844 9.929688 28.011719 9.871094 28.253906 9.277344 Z M 28.253906 9.277344 "/>
<path style=" stroke:none;fill-rule:nonzero;fill:rgb(0%,0%,0%);fill-opacity:1;" d="M 27.394531 14.582031 C 27.675781 15.113281 28.21875 15.207031 28.613281 14.707031 C 29.066406 14.261719 30.082031 11.464844 29.632812 10.890625 C 29.257812 10.394531 27.863281 12.308594 27.492188 12.757812 C 27.15625 13.265625 27.113281 14.046875 27.394531 14.582031 Z M 27.394531 14.582031 "/>
<path style=" stroke:none;fill-rule:nonzero;fill:rgb(0%,0%,0%);fill-opacity:1;" d="M 26.269531 19.925781 C 26.394531 20.621094 26.960938 20.914062 27.574219 20.480469 C 28.246094 20.136719 30.300781 17.269531 29.960938 16.472656 C 29.703125 15.796875 27.546875 17.53125 26.984375 17.910156 C 26.449219 18.371094 26.144531 19.230469 26.269531 19.925781 Z M 26.269531 19.925781 "/>
<path style=" stroke:none;fill-rule:nonzero;fill:rgb(0%,0%,0%);fill-opacity:1;" d="M 24.632812 23.042969 C 23.882812 23.367188 23.238281 24.203125 23.101562 25.015625 C 22.96875 25.824219 23.46875 26.351562 24.316406 26.089844 C 25.199219 25.957031 28.5 23.441406 28.382812 22.425781 C 28.324219 21.59375 25.382812 22.828125 24.632812 23.042969 Z M 24.632812 23.042969 "/>
</g>
</svg>
